<svg xmlns="http://www.w3.org/2000/svg" viewBox="0 0 782.4 300.89"><defs><style>.cls-1{fill:#fff6ed;}.cls-2{fill:#f26d23;}.cls-3{fill:#2d2d2f;}</style></defs><g id="Layer_2" data-name="Layer 2"><g id="Secondary_logo_white" data-name="Secondary logo white"><rect class="cls-1" y="202.44" width="782.4" height="98.46"/><path id="a" class="cls-1" d="M108.52,180.42c-2.71,1.18-4.7,2-6,2.41A79.05,79.05,0,0,1,37.7,179a72,72,0,0,1-27.42-24.88A64.56,64.56,0,0,1,0,118.48,64.88,64.88,0,0,1,6,90.81,69,69,0,0,1,22.34,68.73,71,71,0,0,1,46.2,54.39a78,78,0,0,1,28.18-5.21,80.61,80.61,0,0,1,28.17,5.08,71,71,0,0,1,23.86,14.47,69.27,69.27,0,0,1,16.5,22.08,64.74,64.74,0,0,1,6,27.67l-.13,66.13-40.23-.39ZM45.18,102.11a30.22,30.22,0,0,0-4.69,16.37q0,13.45,10.15,23.23a33.08,33.08,0,0,0,23.74,9.64,33.24,33.24,0,0,0,23.86-9.64q10.14-9.78,10.15-23.23a30.23,30.23,0,0,0-4.7-16.37A34.74,34.74,0,0,0,91.13,90.18a34.4,34.4,0,0,0-33.38,0A34.69,34.69,0,0,0,45.18,102.11Z"/><path id="d" class="cls-1" d="M309.3,119.5A63.47,63.47,0,0,1,299,154.4a70.85,70.85,0,0,1-27.42,24.88,78.55,78.55,0,0,1-64.86,3.93,72.54,72.54,0,0,1-24-14.6,70.23,70.23,0,0,1-16.5-22.33,64.75,64.75,0,0,1-5.84-27.67,64.53,64.53,0,0,1,6-27.54,67.81,67.81,0,0,1,16.38-22.22,73.82,73.82,0,0,1,24-14.59,82.32,82.32,0,0,1,56.23,0l2.92,1.27,2.92,1.27V3.24l40.49.12Zm-40.49-.89a29.61,29.61,0,0,0-4.7-16.25,34.74,34.74,0,0,0-12.56-11.93A32.92,32.92,0,0,0,234.92,86a33.54,33.54,0,0,0-16.75,4.44,34.69,34.69,0,0,0-12.57,11.93,29.6,29.6,0,0,0-4.69,16.25A31.29,31.29,0,0,0,211.06,142a33.86,33.86,0,0,0,47.59,0Q268.81,132.18,268.81,118.61Z"/><path id="m" class="cls-1" d="M438.07,108v80H397.33V108q-1-17.9-15.36-18.4h-2.28q-15.48.49-15.48,21.44V188H323.59V111.05q0-55.2,56.1-58.25H382q22.35,1.28,35.8,10.66,13.32-9.39,35.66-10.66h2.29q56.08,3,56.09,58.25V188H471.2V111.05q0-20.94-15.48-21.44h-2.29Q439.09,90.1,438.07,108Z"/><polygon id="i" class="cls-1" points="560.3 58 560.3 188.09 519.81 188.09 519.81 58.13 560.3 58"/><path id="dot" class="cls-2" d="M557.63,32A21.94,21.94,0,0,1,550,39.6a21.11,21.11,0,0,1-21.2.13,21.74,21.74,0,0,1-10.54-18.54,20.83,20.83,0,0,1,2.8-10.66,22.57,22.57,0,0,1,7.74-7.74A20.22,20.22,0,0,1,539.35,0,21,21,0,0,1,550,2.79a21.64,21.64,0,0,1,7.61,7.74,20.92,20.92,0,0,1,2.79,10.66A20.7,20.7,0,0,1,557.63,32Z"/><path id="r" class="cls-1" d="M633.4,91.76a15.84,15.84,0,0,0-8.25-2.41h-2.28q-15.5.65-15.49,21.58v76.91H566.77V110.93q0-55.47,56.1-58.26h2.28a68.17,68.17,0,0,1,8.25.76Z"/><path id="e" class="cls-1" d="M776.7,94.56A66.67,66.67,0,0,1,782.4,122v1.14a9,9,0,0,1-.12,1.4l-.25,2.16H766.29v.25H679a31.72,31.72,0,0,0,9.26,18.4Q698,155,711.08,155a31.22,31.22,0,0,0,22.84-9.65l.26-.25.38-.51.38-.38.25-.38L757,175a75.74,75.74,0,0,1-19,11.55,72.94,72.94,0,0,1-26.9,5.08,71.28,71.28,0,0,1-35.16-9,69.16,69.16,0,0,1-26.27-25,66,66,0,0,1-9.9-35.67,65.38,65.38,0,0,1,5.71-27.41A68.23,68.23,0,0,1,661.2,72.47,69.87,69.87,0,0,1,684,57.87a74.18,74.18,0,0,1,27-5.07A73.14,73.14,0,0,1,738,57.87a70.64,70.64,0,0,1,23,14.47A66.47,66.47,0,0,1,776.7,94.56Zm-65.62-5.08a31.6,31.6,0,0,0-16,4.31,38.08,38.08,0,0,0-8.88,7.87H736a37.68,37.68,0,0,0-8.88-7.87A31.59,31.59,0,0,0,711.08,89.48Z"/><path id="c" class="cls-3" d="M27,280.78a18.19,18.19,0,0,1-7.73-7.94,27.48,27.48,0,0,1-2.66-12.59V243.13a27.52,27.52,0,0,1,2.66-12.6,18.35,18.35,0,0,1,7.73-8,25.19,25.19,0,0,1,12.18-2.74,21.5,21.5,0,0,1,10.51,2.53,20.66,20.66,0,0,1,7.66,7.36,31.82,31.82,0,0,1,4.19,11.65H49.38a15.79,15.79,0,0,0-2.12-5.28,10.18,10.18,0,0,0-3.48-3.35,9.11,9.11,0,0,0-4.57-1.16,10.91,10.91,0,0,0-5.62,1.36,8.78,8.78,0,0,0-3.54,3.94,14.67,14.67,0,0,0-1.22,6.25v17.12a14.49,14.49,0,0,0,1.22,6.22,8.78,8.78,0,0,0,3.54,3.92,11,11,0,0,0,5.62,1.36,9.44,9.44,0,0,0,4.64-1.14,9.75,9.75,0,0,0,3.47-3.33A15.32,15.32,0,0,0,49.38,262H61.57a32.21,32.21,0,0,1-4.23,11.65A20.75,20.75,0,0,1,49.7,281a21.4,21.4,0,0,1-10.49,2.53A25.42,25.42,0,0,1,27,280.78Z"/><path id="r-2" data-name="r" class="cls-3" d="M103.39,220.43h11.75v62.43H103.39Zm4.67,26h21.71a5.69,5.69,0,0,0,3.18-.9,5.86,5.86,0,0,0,2.12-2.58,9.83,9.83,0,0,0,.8-3.86,9.36,9.36,0,0,0-.75-3.86,5.91,5.91,0,0,0-2.13-2.57,5.74,5.74,0,0,0-3.22-.91H108.06V220.43h22.66a17.43,17.43,0,0,1,9.05,2.31,15.72,15.72,0,0,1,6,6.55,23.43,23.43,0,0,1,0,19.61,15.55,15.55,0,0,1-6.07,6.54,17.39,17.39,0,0,1-9,2.32H108.06Zm13.13,9.4,12.57-2,16.82,29H136.34Z"/><path id="e-2" data-name="e" class="cls-3" d="M194,220.47h11.75v62.39H194Zm4.25,0h37.54V231.8H198.22Zm0,25.75H231v11.32H198.22Zm0,25.31h37.54v11.33H198.22Z"/><path id="a-2" data-name="a" class="cls-3" d="M299,220.47h7.47l23.85,62.39H317.68l-14.94-42.61-14.93,42.61H275.15Zm-12.4,41.06h32.82v11.33H286.61Z"/><path id="t" class="cls-3" d="M367.75,220.47h45.74V231.8H367.75Zm17,5.11H396.5v57.28H384.74Z"/><path id="i-2" data-name="i" class="cls-3" d="M484.6,282.86H472.41V220.47H484.6Z"/><path id="o" class="cls-3" d="M554.43,280.65a19.86,19.86,0,0,1-8-8.07,24.87,24.87,0,0,1-2.83-12.08V242.83a24.87,24.87,0,0,1,2.83-12.08,19.86,19.86,0,0,1,8-8.07,26.48,26.48,0,0,1,23.9,0,19.74,19.74,0,0,1,8,8.07,24.87,24.87,0,0,1,2.84,12.08V260.5a24.87,24.87,0,0,1-2.84,12.08,19.74,19.74,0,0,1-8,8.07,26.48,26.48,0,0,1-23.9,0ZM572,270.39a9.22,9.22,0,0,0,3.71-3.84A12.19,12.19,0,0,0,577,260.8V242.52a12.15,12.15,0,0,0-1.31-5.74,9.22,9.22,0,0,0-3.71-3.84,12.13,12.13,0,0,0-11.16,0,9.22,9.22,0,0,0-3.71,3.84,12.15,12.15,0,0,0-1.31,5.74V260.8a12.19,12.19,0,0,0,1.31,5.75,9.22,9.22,0,0,0,3.71,3.84,12.13,12.13,0,0,0,11.16,0Z"/><path id="n" class="cls-3" d="M630.36,220.47h14.38L668,268.27l-1,1.11V220.47h11.24v62.35H663.7l-23.13-47.07,1-1.12v48.19H630.36Z"/><path id="s" class="cls-3" d="M733.26,282.6a37.16,37.16,0,0,1-8-2.64,30.62,30.62,0,0,1-6.72-4.18l5.45-9.7a26.44,26.44,0,0,0,8.32,4.57,30,30,0,0,0,9.7,1.61q5.75,0,8.93-1.95a6.15,6.15,0,0,0,3.17-5.52v0a5.46,5.46,0,0,0-1.41-3.95,8.5,8.5,0,0,0-3.7-2.14,45.4,45.4,0,0,0-5.83-1.25,1.2,1.2,0,0,0-.24,0,.66.66,0,0,1-.23,0l-.95-.13a58,58,0,0,1-10.38-2.47,15.13,15.13,0,0,1-7-5.19c-1.92-2.47-2.88-6-2.88-10.53v0a19,19,0,0,1,2.7-10.34,17.07,17.07,0,0,1,7.86-6.54,31,31,0,0,1,12.44-2.25,32,32,0,0,1,6.84.77,37,37,0,0,1,6.85,2.23,38.58,38.58,0,0,1,6.35,3.52l-5,10a31.59,31.59,0,0,0-7.53-3.86,22.94,22.94,0,0,0-7.53-1.37c-3.61,0-6.39.59-8.37,1.78a5.56,5.56,0,0,0-3,5v0a5.82,5.82,0,0,0,1.55,4.27,9.29,9.29,0,0,0,3.82,2.3,60.87,60.87,0,0,0,6.39,1.54l.34.07a1.86,1.86,0,0,1,.34.06,3.67,3.67,0,0,1,.5.11,3.86,3.86,0,0,0,.49.1,52.66,52.66,0,0,1,9.89,2.81,15.41,15.41,0,0,1,6.63,5.33q2.65,3.66,2.66,10v.09A18.17,18.17,0,0,1,763,274.79a17.47,17.47,0,0,1-8.13,6.48A33.22,33.22,0,0,1,742,283.5,42.26,42.26,0,0,1,733.26,282.6Z"/></g></g></svg>